<?xml version="1.0" encoding="utf-8"?>
<!-- Generator: Adobe Illustrator 27.0.0, SVG Export Plug-In . SVG Version: 6.00 Build 0)  -->
<svg version="1.1" id="Layer_1" xmlns="http://www.w3.org/2000/svg" xmlns:xlink="http://www.w3.org/1999/xlink" x="0px" y="0px"
	 viewBox="0 0 35.113 27.922" style="enable-background:new 0 0 35.113 27.922;" xml:space="preserve">
<style type="text/css">
	.st0{fill:#28A69A;}
	.st1{fill:#0FD7B1;}
	.st2{fill:#F17BDB;}
</style>
<g>
	<g>
		<path class="st0" d="M33.038,2.851c-2.767-2.77-7.253-2.77-10.02,0L12.676,13.206c-1.999,1.91-4.721,2.616-7.256,2.105
			l2.576,2.579l5.896,5.903l4.124,4.129l15.021-15.039C35.804,10.112,35.804,5.621,33.038,2.851L33.038,2.851z"/>
		<path class="st1" d="M33.039,12.882l-5.059,5.065L17.96,7.916l5.059-5.065c2.765-2.768,7.255-2.768,10.02,0
			C35.804,5.62,35.804,10.115,33.039,12.882L33.039,12.882z"/>
		<path class="st2" d="M12.093,2.076l5.01,5.016l-5.01,5.016c-2.765,2.768-7.255,2.768-10.02,0c-2.764-2.769-2.764-7.264,0-10.032
			C4.838-0.692,9.328-0.692,12.093,2.076z"/>
	</g>
</g>
</svg>
